<svg xmlns="http://www.w3.org/2000/svg" width="128" height="128"><g fill="none" fill-rule="nonzero"><path fill="#000" d="M24.459 114c1.115 0 1.825-.964 1.825-2.234V88.924c8.616 11.878 22.453 19.594 38.165 19.594 15.915 0 29.752-7.767 38.318-19.645v22.893c0 1.27.76 2.234 1.825 2.234h13.28c1.216 0 2.128-.964 2.128-2.183V47.655c0-6.447-3.295-12.995-7.856-18.528-2.23-2.741-7.958-8.63-11.506-8.63-3.091 0-4.612 1.98-4.865 5.28C87.359 18.467 76.41 14 64.5 14c-11.81 0-22.808 4.467-31.171 11.777-.304-3.3-1.774-5.28-4.866-5.28-3.65 0-9.326 5.889-11.556 8.63C12.396 34.66 9 41.208 9 47.655v64.162c0 1.219.963 2.183 2.23 2.183H24.46Z"/><path fill="#AC4300" d="M64.423 102c-17.448 0-32.748-10.993-38.53-26.827V59.44c0-2.32-1.177-8.774-1.893-12.757 7.266-15.986 21.798-25.667 40.474-25.667 18.421-.454 33.004 9.026 40.526 25.667-.716 3.983-1.893 10.438-1.893 12.757v15.632C97.529 90.705 82.435 102 64.423 102Z"/><path fill="#FCC" d="M18.8 68c-1.243 0-1.658-.205-2.227-.769C13.62 64.31 13 54.982 13 48.32v-.256c0-2.767.777-8.303 6.576-15.529a48.407 48.407 0 0 1 5.385-5.381c1.709-1.487 2.745-2 3.055-2.153.466 0 .622.154.673.154l.052.051c.259.564.259 1.845.259 2.358 0 2.1-2.485 5.74-4.505 8.712-2.434 3.485-4.453 6.458-4.453 9.123 0 2.204.414 4.51.829 6.919.72 4.188.772 5.283.776 7.798v2.862C21.492 66.462 20.871 68 18.8 68ZM110.182 68c-2.13 0-2.753-1.538-2.91-5.176l.001-2.71c.004-2.514.06-3.609.83-7.797.365-2.409.832-4.715.832-6.919 0-2.665-2.026-5.638-4.467-9.123-2.026-2.972-4.468-6.611-4.468-8.712 0-.513 0-1.794.208-2.358l.104-.051c.052 0 .207-.154.623-.154.364.154 1.35.666 3.065 2.153 1.922 1.486 3.792 3.433 5.403 5.381 5.697 7.076 6.562 12.53 6.596 15.353l.001.432c0 6.663-.623 15.99-3.584 18.912-.52.564-.987.769-2.234.769Z"/><path fill="#000" d="M64.627 97c10.893 0 20.055-8.816 20.055-19.949 0-2.82-.509-5.44-1.73-8.06C91.501 66.17 97 58.462 97 49.999 97 38.765 87.838 30 76.894 30c-4.53 0-8.907 1.511-12.369 4.13C60.962 31.512 56.738 30 52.208 30 41.06 30 32 38.917 32 50c0 8.664 5.7 16.321 14.1 18.991-1.07 2.62-1.731 5.24-1.731 8.06C44.369 88.134 53.684 97 64.627 97Z"/><path fill="#FCC" d="M64.127 93c-8.666 0-15.761-7.088-15.761-15.86 0-3.008.81-5.863 2.382-8.413.253-.408.354-.867.354-1.173 0-1.377-.81-2.04-1.824-2.193C41.32 63.984 36 57.406 36 49.757 36 41.037 42.943 34 51.761 34c4.054 0 7.754 1.428 10.187 3.62.709.714 1.266 1.173 2.077 1.173.608 0 1.065-.255 1.926-1.02C68.485 35.48 72.337 34 76.341 34 85.208 34 92 41.19 92 49.757c0 7.65-5.625 14.33-13.126 15.604-1.013.153-1.824.97-1.824 2.193 0 .306.152.765.405 1.122 1.52 2.6 2.331 5.456 2.331 8.465 0 8.72-6.943 15.859-15.66 15.859Z"/><path fill="#000" d="M52.025 55C54.635 55 57 52.794 57 50.049c0-1.324-.493-2.5-1.429-3.431C54.537 45.588 53.305 45 52.025 45 49.266 45 47 47.353 47 50.049c0 1.324.591 2.549 1.478 3.48.936.883 2.217 1.471 3.547 1.471ZM78.025 55C80.76 55 83 52.794 83 50.049c0-1.324-.547-2.5-1.393-3.431-.995-1.03-2.239-1.618-3.582-1.618C75.239 45 73 47.353 73 50.049c0 1.324.547 2.549 1.493 3.48.945.883 2.189 1.471 3.532 1.471ZM60.476 63C61.905 63 63 61.868 63 60.406 63 59.132 61.905 58 60.476 58 59.048 58 58 59.132 58 60.406 58 62.009 59.143 63 60.476 63ZM68.571 63C69.905 63 71 61.868 71 60.406 71 59.132 69.905 58 68.571 58 67.095 58 66 59.132 66 60.406 66 62.009 67.19 63 68.571 63Z"/><path fill="#AC4300" d="M116 110h-9V71.91c.964.402 2.143.603 3.59.603 2.25-.05 4.017-.955 5.41-2.513v40ZM21 110h-8V70c1.246 1.56 2.826 2.465 4.838 2.465 1.246 0 2.3-.2 3.162-.603V110Z"/><path fill="#000" d="M64.552 83c2.953 0 5.698-.83 7.874-2.39C74.705 78.756 76 76.17 76 73.195c0-1.22-.984-2.195-2.227-2.195-.622 0-1.192.244-1.606.683-1.658 1.22-3.678 2.488-7.615 2.488-3.989 0-6.01-1.269-7.667-2.488-.414-.44-.984-.683-1.658-.683-1.191 0-2.227.976-2.227 2.195 0 2.976 1.243 5.561 3.626 7.415C58.75 82.17 61.547 83 64.552 83Z"/></g></svg>
